<svg width="24" height="24" viewBox="0 0 24 24" fill="none" xmlns="http://www.w3.org/2000/svg">
<path d="M16.5703 19.2293C16.5703 19.2293 15.9618 18.4939 15.4547 17.8611C17.669 17.2283 18.5142 15.843 18.5142 15.843C17.8212 16.3048 17.1619 16.6297 16.5703 16.852C15.7252 17.2112 14.9139 17.4335 14.1194 17.5874C12.4967 17.8953 11.0093 17.8098 9.74155 17.5703C8.77808 17.3822 7.94984 17.1257 7.25681 16.8349C6.86805 16.681 6.44547 16.4929 6.0229 16.2535C5.97219 16.2193 5.92148 16.2022 5.87077 16.168C5.83697 16.1508 5.82007 16.1337 5.80316 16.1337C5.49891 15.9627 5.32988 15.843 5.32988 15.843C5.32988 15.843 6.14122 17.1941 8.2879 17.844C7.78081 18.4939 7.1554 19.2464 7.1554 19.2464C3.41985 19.1267 2 16.6639 2 16.6639C2 11.2083 4.43402 6.77878 4.43402 6.77878C6.86805 4.94884 9.16685 5.00014 9.16685 5.00014L9.33588 5.20537C6.29335 6.07759 4.90731 7.42867 4.90731 7.42867C4.90731 7.42867 5.27917 7.22344 5.90458 6.94981C7.7132 6.146 9.14995 5.94077 9.74155 5.87236C9.84297 5.85526 9.92748 5.83816 10.0289 5.83816C11.06 5.70134 12.2263 5.66714 13.4433 5.80395C15.0491 5.99208 16.7732 6.47094 18.5311 7.42867C18.5311 7.42867 17.1957 6.146 14.3222 5.27378L14.5589 5.00014C14.5589 5.00014 16.8746 4.94884 19.2917 6.77878C19.2917 6.77878 21.7257 11.2083 21.7257 16.6639C21.7257 16.6468 20.3059 19.1095 16.5703 19.2293Z" fill="url(#paint0_linear)"/>
<path d="M14.8797 11.0676C13.9162 11.0676 13.1556 11.8734 13.1556 12.8765C13.1556 13.8796 13.9331 14.6854 14.8797 14.6854C15.8432 14.6854 16.6038 13.8796 16.6038 12.8765C16.6038 11.8734 15.8263 11.0676 14.8797 11.0676ZM8.71012 11.0676C7.74666 11.0676 6.98602 11.8734 6.98602 12.8765C6.98602 13.8796 7.76356 14.6854 8.71012 14.6854C9.67359 14.6854 10.4342 13.8796 10.4342 12.8765C10.4511 11.8734 9.67359 11.0676 8.71012 11.0676Z" fill="#2A3036"/>
<defs>
<linearGradient id="paint0_linear" x1="11.8629" y1="5" x2="11.8629" y2="19.2464" gradientUnits="userSpaceOnUse">
<stop stop-color="#F1BC51"/>
<stop offset="1" stop-color="#917444"/>
</linearGradient>
</defs>
</svg>
