<svg width="134" height="28" viewBox="0 0 134 28" fill="none" xmlns="http://www.w3.org/2000/svg">
<g filter="url(#filter0_d)">
<path d="M20.3232 7.45093H20.1619C20.126 7.98647 19.5864 9.41785 19.461 9.68562L15.4311 18.7419C15.0368 19.4559 14.4275 19.4632 13.9077 19.4632H13.5344V19.8774H17.6766V19.481H17.4383C16.9723 19.481 16.4526 19.3488 16.7573 18.6347L17.5613 16.7012H21.7729L22.761 18.6347C23.0298 19.3488 22.528 19.481 22.0621 19.481H21.8187L21.8187 19.8774H27.6177L27.6177 19.4632H27.4744C26.9367 19.4632 26.3274 19.4381 25.9331 18.7061L20.3232 7.45093ZM17.8839 15.9514L19.7119 11.5779L21.4682 15.9514H17.8839Z" fill="url(#paint0_linear)"/>
<path d="M75.2525 7.86514C74.6253 7.86514 74.0099 8.27936 73.9992 9.10779V13.2499H79.8089V9.10779C79.8089 8.27936 79.1935 7.86514 78.5663 7.86514H78.152L78.1521 7.45093H83.9511V7.86514H83.5368C82.9096 7.86514 82.2942 8.27936 82.2835 9.10779L82.2834 18.2205C82.2942 19.049 82.9096 19.4632 83.5368 19.4632H83.9511V19.8774H78.152L78.1521 19.4632H78.5663C79.1935 19.4632 79.8089 19.049 79.8089 18.2205V14.0784H73.9991V18.2205C74.0099 19.049 74.6253 19.4632 75.2525 19.4632H75.6667V19.8774H69.8677L69.8677 19.4632H70.282C70.9092 19.4632 71.5246 19.049 71.5246 18.2205L71.5246 9.10779C71.5246 8.27936 70.9092 7.86514 70.282 7.86514H69.8677L69.8677 7.45093H75.6668V7.86514H75.2525Z" fill="url(#paint1_linear)"/>
<path d="M40.0442 14.4925C39.63 18.2204 38.3874 19.4631 35.4878 19.4631C32.8175 19.3917 30.9315 16.9437 30.9315 13.4092C30.9315 9.91031 33.0525 7.86505 35.9021 7.86505C37.8734 7.86505 39.385 8.66072 40.0302 10.9992H40.4584L40.0302 8.27927C38.8016 7.45084 37.8017 7.03662 35.9021 7.03662C31.7599 7.03662 28.8604 9.1077 28.4462 13.4092C28.0561 17.4605 31.0791 20.2737 35.4878 20.2915C37.9731 20.3016 40.0442 19.0489 40.4584 17.392L40.4584 14.4925H40.0442Z" fill="url(#paint2_linear)"/>
<path d="M109.666 14.4925C109.252 18.2204 108.009 19.4631 105.11 19.4631C102.44 19.3917 100.553 16.9437 100.553 13.4092C100.553 9.91031 102.675 7.86505 105.524 7.86505C107.495 7.86505 109.007 8.66072 109.652 10.9992H110.08L109.652 8.27927C108.424 7.45084 107.424 7.03662 105.524 7.03662C101.382 7.03662 98.4824 9.1077 98.0682 13.4092C97.6781 17.4605 100.701 20.2737 105.11 20.2915C107.595 20.3016 109.666 19.0489 110.08 17.392L110.08 14.4925H109.666Z" fill="url(#paint3_linear)"/>
<path d="M52.4707 16.1494C51.6423 18.1937 50.8139 19.0489 49.157 19.0489H46.6717V14.0783H49.157C49.9854 14.0783 50.3996 14.9067 50.3996 15.7351H50.8139V11.593H50.3996C50.3996 12.4214 49.9854 13.2499 49.157 13.2499H46.6717V8.27927H49.5712C50.8139 8.27927 51.2281 9.06505 51.2281 10.1361V10.3503H51.6423V7.03662C51.2281 7.45084 50.8139 7.45084 49.5712 7.45084H42.5295V7.86505H42.9438C43.7722 7.86505 44.1864 8.27927 44.1864 9.1077V18.2204C44.1864 19.0489 43.7722 19.4631 42.9438 19.4631H42.5295V19.8773H51.8129L52.8849 16.1494H52.4707Z" fill="url(#paint4_linear)"/>
<path d="M96.3775 16.1494C95.5491 18.1937 94.7207 19.0489 93.0638 19.0489H90.5785V14.0783H93.0638C93.8922 14.0783 94.3064 14.9067 94.3064 15.7351H94.7207V11.593H94.3064C94.3064 12.4214 93.8922 13.2499 93.0638 13.2499H90.5785V8.27927H93.478C94.7207 8.27927 95.1349 9.06505 95.1349 10.1361V10.3503H95.5491V7.03662C95.1349 7.45084 94.7207 7.45084 93.478 7.45084H86.4363V7.86505H86.8506C87.679 7.86505 88.0932 8.27927 88.0932 9.1077V18.2204C88.0932 19.0489 87.679 19.4631 86.8506 19.4631H86.4363V19.8773H95.7197L96.7917 16.1494H96.3775Z" fill="url(#paint5_linear)"/>
<path d="M68.2109 12.7487C68.3184 16.9259 65.817 19.4631 62.4119 19.4631C59.0964 19.4095 57.4413 16.6238 57.4413 13.2499C57.4413 9.8938 59.3831 7.86505 62.4119 7.86505C64.2936 7.86505 65.8909 8.7867 66.554 11.1788H66.9682L66.554 8.27927C65.5146 7.72588 64.2936 7.03662 62.4119 7.03662C57.8555 7.03662 54.956 9.52191 54.956 13.6641C54.956 16.5636 57.4297 20.2915 62.4119 20.2915C66.3188 20.2915 68.9957 17.4614 68.5118 12.7487H68.2109Z" fill="url(#paint6_linear)"/>
<path d="M3.59326 2.89468C5.66434 3.72312 6.07855 4.96576 6.07855 7.45106L6.03036 18.6511C6.03036 19.2402 5.69669 19.4633 5.0515 19.4633H4.42169V19.8775H10.2207V19.4633H9.57351C8.96417 19.4633 8.56385 19.0491 8.56385 18.5922V12.3251H12.2503C13.1285 12.3608 13.7557 13.0035 13.7557 13.8603V14.021H13.917V9.89734H13.7557V10.0401C13.7557 10.9149 13.1105 11.5575 12.2324 11.5754H8.56385V7.45106C8.56385 6.28815 8.31207 5.32931 7.85875 4.57451C9.57817 4.96576 13.3337 4.96576 16.0197 4.96576C19.968 4.96576 22.7993 5.37998 25.1325 7.45106L25.4141 7.27475C23.4756 4.13733 20.9903 2.48047 14.9715 2.48047H3.59326V2.89468Z" fill="url(#paint7_linear)"/>
<path d="M116.249 9.10779C116.26 8.27936 116.875 7.86514 117.502 7.86514H117.917V7.45093H112.118L112.118 7.86514H112.532C113.159 7.86514 113.775 8.27936 113.775 9.10779L113.775 18.2205C113.775 19.049 113.159 19.4632 112.532 19.4632H112.118L112.118 19.8774H117.917V19.4632H117.502C116.875 19.4632 116.26 19.049 116.249 18.2205L116.249 9.10779Z" fill="url(#paint8_linear)"/>
<path d="M123.716 18.2205C125.884 21.041 127.858 22.3627 130.343 22.3627V22.5752C127.029 24.067 123.716 22.7769 121.23 19.4632L117.088 14.0784L121.23 8.69357C121.535 8.30084 121.645 7.86514 120.923 7.86514H120.402V7.45093H124.958V7.86514H124.544C123.716 7.86514 122.939 8.17589 122.473 8.69357L119.574 12.4215L123.716 18.2205Z" fill="url(#paint9_linear)"/>
</g>
<defs>
<filter id="filter0_d" x="-1.0636" y="-1.17651" width="136.064" height="30.8529" filterUnits="userSpaceOnUse" color-interpolation-filters="sRGB">
<feFlood flood-opacity="0" result="BackgroundImageFix"/>
<feColorMatrix in="SourceAlpha" type="matrix" values="0 0 0 0 0 0 0 0 0 0 0 0 0 0 0 0 0 0 127 0"/>
<feOffset dy="1"/>
<feGaussianBlur stdDeviation="1.5"/>
<feColorMatrix type="matrix" values="0 0 0 0 0 0 0 0 0 0 0 0 0 0 0 0 0 0 0.3 0"/>
<feBlend mode="normal" in2="BackgroundImageFix" result="effect1_dropShadow"/>
<feBlend mode="normal" in="SourceGraphic" in2="effect1_dropShadow" result="shape"/>
</filter>
<linearGradient id="paint0_linear" x1="17.6766" y1="9.10779" x2="24.988" y2="20.2195" gradientUnits="userSpaceOnUse">
<stop stop-color="#F1BC51"/>
<stop offset="1" stop-color="#917444"/>
</linearGradient>
<linearGradient id="paint1_linear" x1="70.828" y1="8.40516" x2="81.3169" y2="20.2393" gradientUnits="userSpaceOnUse">
<stop stop-color="#F1BC51"/>
<stop offset="1" stop-color="#917444"/>
</linearGradient>
<linearGradient id="paint2_linear" x1="30.9315" y1="8.27927" x2="40.4759" y2="18.5581" gradientUnits="userSpaceOnUse">
<stop stop-color="#F1BC51"/>
<stop offset="1" stop-color="#917444"/>
</linearGradient>
<linearGradient id="paint3_linear" x1="98.8557" y1="8.05448" x2="110.069" y2="18.1996" gradientUnits="userSpaceOnUse">
<stop stop-color="#F1BC51"/>
<stop offset="1" stop-color="#917444"/>
</linearGradient>
<linearGradient id="paint4_linear" x1="43.2356" y1="8.02266" x2="53.8951" y2="16.5805" gradientUnits="userSpaceOnUse">
<stop stop-color="#F1BC51"/>
<stop offset="1" stop-color="#917444"/>
</linearGradient>
<linearGradient id="paint5_linear" x1="87.1424" y1="8.02266" x2="97.8019" y2="16.5805" gradientUnits="userSpaceOnUse">
<stop stop-color="#F1BC51"/>
<stop offset="1" stop-color="#917444"/>
</linearGradient>
<linearGradient id="paint6_linear" x1="55.8841" y1="8.05447" x2="67.1511" y2="19.5733" gradientUnits="userSpaceOnUse">
<stop stop-color="#F1BC51"/>
<stop offset="1" stop-color="#917444"/>
</linearGradient>
<linearGradient id="paint7_linear" x1="4.96808" y1="3.8164" x2="19.6094" y2="20.7103" gradientUnits="userSpaceOnUse">
<stop stop-color="#F1BC51"/>
<stop offset="1" stop-color="#917444"/>
</linearGradient>
<linearGradient id="paint8_linear" x1="113.36" y1="8.65959" x2="126.609" y2="23.9314" gradientUnits="userSpaceOnUse">
<stop stop-color="#F1BC51"/>
<stop offset="1" stop-color="#917444"/>
</linearGradient>
<linearGradient id="paint9_linear" x1="113.36" y1="8.65959" x2="126.609" y2="23.9314" gradientUnits="userSpaceOnUse">
<stop stop-color="#F1BC51"/>
<stop offset="1" stop-color="#917444"/>
</linearGradient>
</defs>
</svg>
