<svg width="24" height="24" viewBox="0 0 24 24" fill="none" xmlns="http://www.w3.org/2000/svg">
<path fill-rule="evenodd" clip-rule="evenodd" d="M18.9999 8.00012L12 1.00019V1.00012L12 1.00016L11.9999 1.00012V1.00019L5 8.00012L9.99994 13.5001L9.90319 20.7582L11.9999 23.0001V23.0001L12 23.0001L12 23.0001V23.0001L14.0967 20.7582L14 13.5001L18.9999 8.00012ZM15.9999 8.00012L12 4.00016L8 8.00012L12 12.0001L15.9999 8.00012ZM17.9479 14.6735L17.9479 14.6737C17.9257 14.7609 17.9039 14.8461 17.8823 14.9287C17.4705 16.5001 14.9999 18.0716 14.9999 18.0716V20.4287L17.4705 22.0001C17.745 20.9525 18.7882 18.8573 20.7646 18.8573C20.4901 18.3335 20.2705 16.9716 21.5882 15.7144C20.7646 14.7977 20.7646 12.9644 21.9999 11.0001C18.8844 11.0001 18.3362 13.1506 17.9479 14.6735ZM6.11765 14.9287C6.09599 14.846 6.07426 14.7608 6.05201 14.6735C5.66376 13.1506 5.11554 11.0001 2 11.0001C3.23529 12.9644 3.23529 14.7977 2.41176 15.7144C3.72941 16.9716 3.5098 18.3335 3.23529 18.8573C5.21177 18.8573 6.2549 20.9525 6.52941 22.0001L9 20.4287V18.0716C9 18.0716 6.52941 16.5001 6.11765 14.9287ZM11.9997 6.79045L10.79 8.00012L11.9997 9.2098L13.2093 8.00012L11.9997 6.79045Z" fill="url(#paint0_linear)"/>
<defs>
<linearGradient id="paint0_linear" x1="12" y1="1.00012" x2="12" y2="23.0001" gradientUnits="userSpaceOnUse">
<stop stop-color="#F1BC51"/>
<stop offset="1" stop-color="#917444"/>
</linearGradient>
</defs>
</svg>
