<svg width="54" height="29" viewBox="0 0 54 29" fill="none" xmlns="http://www.w3.org/2000/svg">
<path d="M26.9766 17.5348V21.5813L37.7673 10.7906H33.7207L26.9766 17.5348Z" fill="#0BB1C3"/>
<path d="M26.9766 24.9535V29L53.9533 2.02326L51.93 0L26.9766 24.9535Z" fill="#C59A43"/>
<mask id="mask0" mask-type="alpha" maskUnits="userSpaceOnUse" x="26" y="0" width="28" height="29">
<path d="M26.9766 17.5348V21.5813L37.7673 10.7906H33.7207L26.9766 17.5348Z" fill="#0BB1C3"/>
<path d="M26.9766 24.9535V29L53.9533 2.02326L51.93 0L26.9766 24.9535Z" fill="#C59A43"/>
</mask>
<g mask="url(#mask0)">
<g filter="url(#filter0_d)">
<path d="M26.9766 10.1163V12.814C41.544 12.814 50.806 5.62016 53.9533 2.02326L51.93 0C43.0277 8.90233 32.3719 10.1163 26.9766 10.1163Z" fill="#C59A43"/>
</g>
</g>
<path d="M26.9766 10.1163V12.814C41.544 12.814 50.806 5.62016 53.9533 2.02326L51.93 0C43.0277 8.90233 32.3719 10.1163 26.9766 10.1163Z" fill="#C59A43"/>
<path d="M26.9766 17.5348V21.5813L16.1859 10.7906H20.2324L26.9766 17.5348Z" fill="#0BB1C3"/>
<path d="M26.9766 24.9535V29L-0.000179291 2.02326L2.02308 0L26.9766 24.9535Z" fill="#C59A43"/>
<mask id="mask1" mask-type="alpha" maskUnits="userSpaceOnUse" x="0" y="0" width="27" height="29">
<path d="M26.9766 17.5348V21.5813L16.1859 10.7906H20.2324L26.9766 17.5348Z" fill="#0BB1C3"/>
<path d="M26.9766 24.9535V29L-0.000179291 2.02326L2.02308 0L26.9766 24.9535Z" fill="#C59A43"/>
</mask>
<g mask="url(#mask1)">
<g filter="url(#filter1_d)">
<path d="M26.9766 10.1163V12.814C12.4091 12.814 3.14711 5.62016 -0.000179291 2.02326L2.02308 0C10.9254 8.90233 21.5812 10.1163 26.9766 10.1163Z" fill="#C59A43"/>
</g>
</g>
<path d="M26.9766 10.1163V12.814C12.4091 12.814 3.14711 5.62016 -0.000179291 2.02326L2.02308 0C10.9254 8.90233 21.5812 10.1163 26.9766 10.1163Z" fill="#C59A43"/>
<defs>
<filter id="filter0_d" x="25.9766" y="0" width="28.9767" height="14.814" filterUnits="userSpaceOnUse" color-interpolation-filters="sRGB">
<feFlood flood-opacity="0" result="BackgroundImageFix"/>
<feColorMatrix in="SourceAlpha" type="matrix" values="0 0 0 0 0 0 0 0 0 0 0 0 0 0 0 0 0 0 127 0"/>
<feOffset dy="1"/>
<feGaussianBlur stdDeviation="0.5"/>
<feColorMatrix type="matrix" values="0 0 0 0 0 0 0 0 0 0 0 0 0 0 0 0 0 0 0.4 0"/>
<feBlend mode="normal" in2="BackgroundImageFix" result="effect1_dropShadow"/>
<feBlend mode="normal" in="SourceGraphic" in2="effect1_dropShadow" result="shape"/>
</filter>
<filter id="filter1_d" x="-1" y="0" width="28.9767" height="14.814" filterUnits="userSpaceOnUse" color-interpolation-filters="sRGB">
<feFlood flood-opacity="0" result="BackgroundImageFix"/>
<feColorMatrix in="SourceAlpha" type="matrix" values="0 0 0 0 0 0 0 0 0 0 0 0 0 0 0 0 0 0 127 0"/>
<feOffset dy="1"/>
<feGaussianBlur stdDeviation="0.5"/>
<feColorMatrix type="matrix" values="0 0 0 0 0 0 0 0 0 0 0 0 0 0 0 0 0 0 0.4 0"/>
<feBlend mode="normal" in2="BackgroundImageFix" result="effect1_dropShadow"/>
<feBlend mode="normal" in="SourceGraphic" in2="effect1_dropShadow" result="shape"/>
</filter>
</defs>
</svg>
