<svg width="24" height="17" viewBox="0 0 24 17" fill="none" xmlns="http://www.w3.org/2000/svg">
<path fill-rule="evenodd" clip-rule="evenodd" d="M16.6145 15.2574C17.2117 16.0026 17.9284 16.8687 17.9284 16.8687C22.0963 16.7351 23.8164 14.1249 23.9858 13.8678C23.9952 13.8535 23.9998 13.8465 23.9998 13.8475C23.9998 7.4225 21.1333 2.20594 21.1333 2.20594C18.2867 0.0508308 15.5595 0.111254 15.5595 0.111254L15.2808 0.433514C18.6649 1.46071 20.2375 2.9713 20.2375 2.9713C18.1672 1.8434 16.1368 1.27944 14.2457 1.05789C12.8124 0.896761 11.4389 0.937043 10.2246 1.09817C10.1203 1.09817 10.0312 1.11352 9.93081 1.13082C9.9162 1.13334 9.90135 1.1359 9.88618 1.13846C9.18945 1.21902 7.49741 1.46071 5.36742 2.40735C4.63088 2.72961 4.19295 2.9713 4.19295 2.9713C4.19295 2.9713 5.82527 1.38015 9.40842 0.352949L9.20936 0.111254C9.20936 0.111254 6.50209 0.0508308 3.63556 2.20594C3.63556 2.20594 0.769043 7.4225 0.769043 13.8475C0.769043 13.8475 2.44118 16.7479 6.8405 16.8889C6.8405 16.8889 7.57703 16.0027 8.17423 15.2373C5.64611 14.4719 4.69061 12.8808 4.69061 12.8808C4.69061 12.8808 4.88967 13.0218 5.24798 13.2232C5.26029 13.2232 5.27259 13.2309 5.28959 13.2415C5.3001 13.2481 5.3124 13.2558 5.32761 13.2634C5.35747 13.2836 5.38733 13.2987 5.41719 13.3138C5.44705 13.3289 5.47691 13.344 5.50677 13.3642C6.00443 13.6461 6.50209 13.8677 6.95993 14.049C7.7761 14.3914 8.75151 14.6935 9.88618 14.915C11.3792 15.197 13.1309 15.2977 15.0419 14.9352C15.9775 14.7539 16.933 14.4921 17.9284 14.0691C18.6251 13.8073 19.4014 13.4246 20.2176 12.8808C20.2176 12.8808 19.2223 14.5122 16.6145 15.2574ZM13.9068 9.38725C13.9068 8.2059 14.8026 7.25693 15.9373 7.25693C17.052 7.25693 17.9677 8.2059 17.9677 9.38725C17.9677 10.5686 17.072 11.5176 15.9373 11.5176C14.8225 11.5176 13.9068 10.5686 13.9068 9.38725ZM6.64099 9.38725C6.64099 8.2059 7.53678 7.25693 8.67145 7.25693C9.80611 7.25693 10.7218 8.2059 10.7019 9.38725C10.7019 10.5686 9.80611 11.5176 8.67145 11.5176C7.55669 11.5176 6.64099 10.5686 6.64099 9.38725Z" fill="#F4F2FF"/>
</svg>
