<svg width="20" height="15" viewBox="0 0 20 15" fill="none" xmlns="http://www.w3.org/2000/svg">
<path fill-rule="evenodd" clip-rule="evenodd" d="M10 7.45823L0.785882 1.02298C0.854864 1.00793 0.926506 1 1 1H19C19.0735 1 19.1451 1.00793 19.2141 1.02298L10 7.45823ZM0 12.4879V2.30373L5.36345 6.04962L0 12.4879ZM0.724611 13.9616C0.812096 13.9866 0.904484 14 1 14H19C19.0955 14 19.1879 13.9866 19.2754 13.9616L13.4023 6.91161L10.4294 8.98793L10 9.28785L9.57056 8.98793L6.59766 6.91161L0.724611 13.9616ZM14.6366 6.04962L20 12.4879V2.30373L14.6366 6.04962Z" fill="#F5F3FF"/>
<rect x="0.5" y="0.777832" width="19" height="13.4444" rx="0.5" stroke="#F5F3FF"/>
</svg>
