<svg width="148" height="30" viewBox="0 0 148 30" fill="none" xmlns="http://www.w3.org/2000/svg">
<g filter="url(#filter0_d)">
<path d="M21.7678 8.21558H21.5884C21.5485 8.81133 20.9483 10.4036 20.8087 10.7015L16.3257 20.7759C15.8871 21.5703 15.2093 21.5784 14.6311 21.5784H14.2158V22.0391H18.8237V21.5982H18.5586C18.0402 21.5982 17.4621 21.4511 17.801 20.6568L18.6954 18.5058H23.3805L24.4797 20.6568C24.7788 21.4511 24.2206 21.5982 23.7022 21.5982H23.4315L23.4315 22.0391H29.8825L29.8825 21.5784H29.723C29.1249 21.5784 28.4471 21.5504 28.0085 20.7362L21.7678 8.21558ZM19.0543 17.6718L21.0878 12.8065L23.0416 17.6718H19.0543Z" fill="url(#paint0_linear)"/>
<path d="M82.873 8.67636C82.1752 8.67636 81.4907 9.13715 81.4787 10.0587V14.6666H87.9417V10.0587C87.9417 9.13715 87.2571 8.67636 86.5593 8.67636H86.0985L86.0985 8.21558H92.5495V8.67636H92.0887C91.391 8.67636 90.7064 9.13715 90.6944 10.0587L90.6944 20.196C90.7064 21.1176 91.391 21.5784 92.0887 21.5784H92.5495V22.0391H86.0985L86.0985 21.5784H86.5593C87.2571 21.5784 87.9417 21.1176 87.9417 20.196V15.5881H81.4787V20.196C81.4907 21.1176 82.1752 21.5784 82.873 21.5784H83.3338V22.0391H76.8828L76.8828 21.5784H77.3436C78.0414 21.5784 78.726 21.1176 78.726 20.196L78.726 10.0587C78.726 9.13715 78.0414 8.67636 77.3436 8.67636H76.8828L76.8828 8.21558H83.3338V8.67636H82.873Z" fill="url(#paint1_linear)"/>
<path d="M43.7062 16.049C43.2454 20.1961 41.8631 21.5784 38.6376 21.5784C35.667 21.499 33.5689 18.7759 33.5689 14.8439C33.5689 10.9517 35.9285 8.67645 39.0984 8.67645C41.2914 8.67645 42.9729 9.56158 43.6906 12.163H44.167L43.6906 9.13724C42.3239 8.21567 41.2116 7.75488 39.0984 7.75488C34.4905 7.75488 31.265 10.0588 30.8042 14.8439C30.3703 19.3508 33.7332 22.4802 38.6376 22.5C41.4023 22.5112 43.7062 21.1177 44.167 19.2745L44.167 16.049H43.7062Z" fill="url(#paint2_linear)"/>
<path d="M121.156 16.049C120.695 20.1961 119.313 21.5784 116.087 21.5784C113.117 21.499 111.019 18.7759 111.019 14.8439C111.019 10.9517 113.378 8.67645 116.548 8.67645C118.741 8.67645 120.423 9.56158 121.14 12.163H121.617L121.14 9.13724C119.774 8.21567 118.661 7.75488 116.548 7.75488C111.94 7.75488 108.715 10.0588 108.254 14.8439C107.82 19.3508 111.183 22.4802 116.087 22.5C118.852 22.5112 121.156 21.1177 121.617 19.2745L121.617 16.049H121.156Z" fill="url(#paint3_linear)"/>
<path d="M57.5296 17.8922C56.608 20.1663 55.6864 21.1177 53.8433 21.1177H51.0786V15.5882H53.8433C54.7648 15.5882 55.2256 16.5098 55.2256 17.4314H55.6864V12.8235H55.2256C55.2256 13.7451 54.7648 14.6667 53.8433 14.6667H51.0786V9.13724H54.3041C55.6864 9.13724 56.1472 10.0114 56.1472 11.2029V11.4412H56.608V7.75488C56.1472 8.21567 55.6864 8.21567 54.3041 8.21567H46.4707V8.67645H46.9315C47.8531 8.67645 48.3138 9.13724 48.3138 10.0588V20.1961C48.3138 21.1177 47.8531 21.5785 46.9315 21.5785H46.4707V22.0392H56.7978L57.9903 17.8922H57.5296Z" fill="url(#paint4_linear)"/>
<path d="M106.373 17.8922C105.451 20.1663 104.53 21.1177 102.687 21.1177H99.9218V15.5882H102.687C103.608 15.5882 104.069 16.5098 104.069 17.4314H104.53V12.8235H104.069C104.069 13.7451 103.608 14.6667 102.687 14.6667H99.9218V9.13724H103.147C104.53 9.13724 104.99 10.0114 104.99 11.2029V11.4412H105.451V7.75488C104.99 8.21567 104.53 8.21567 103.147 8.21567H95.314V8.67645H95.7748C96.6963 8.67645 97.1571 9.13724 97.1571 10.0588V20.1961C97.1571 21.1177 96.6963 21.5785 95.7748 21.5785H95.314V22.0392H105.641L106.834 17.8922H106.373Z" fill="url(#paint5_linear)"/>
<path d="M75.0396 14.1091C75.1592 18.756 72.3765 21.5784 68.5886 21.5784C64.9003 21.5189 63.0591 18.4199 63.0591 14.6667C63.0591 10.9333 65.2193 8.67645 68.5886 8.67645C70.6819 8.67645 72.4588 9.70172 73.1964 12.3627H73.6572L73.1964 9.13724C72.0401 8.52163 70.6819 7.75488 68.5886 7.75488C63.5199 7.75488 60.2944 10.5196 60.2944 15.1275C60.2944 18.353 63.0462 22.5 68.5886 22.5C72.9347 22.5 75.9126 19.3517 75.3743 14.1091H75.0396Z" fill="url(#paint6_linear)"/>
<path d="M3.15723 3.14706C5.46115 4.06864 5.92194 5.45099 5.92194 8.21571L5.86833 20.675C5.86833 21.3303 5.49714 21.5785 4.77942 21.5785H4.0788V22.0393H10.5298V21.5785H9.80983C9.13198 21.5785 8.68665 21.1177 8.68665 20.6095V13.6378H12.7876C13.7645 13.6775 14.4622 14.3924 14.4622 15.3456V15.5243H14.6417V10.937H14.4622V11.0959C14.4622 12.0689 13.7445 12.7838 12.7676 12.8037H8.68665V8.21571C8.68665 6.92206 8.40656 5.85541 7.90228 5.01576C9.81502 5.45099 13.9928 5.45099 16.9808 5.45099C21.373 5.45099 24.5226 5.91178 27.1181 8.21571L27.4314 8.01958C25.2749 4.52942 22.5102 2.68628 15.8147 2.68628H3.15723V3.14706Z" fill="url(#paint7_linear)"/>
<path d="M128.479 10.0587C128.491 9.13715 129.175 8.67636 129.873 8.67636H130.334V8.21558H123.883L123.883 8.67636H124.344C125.041 8.67636 125.726 9.13715 125.726 10.0587L125.726 20.196C125.726 21.1176 125.041 21.5784 124.344 21.5784H123.883L123.883 22.0391H130.334V21.5784H129.873C129.175 21.5784 128.491 21.1176 128.479 20.196L128.479 10.0587Z" fill="url(#paint8_linear)"/>
<path d="M136.785 20.196C139.197 23.3336 141.393 24.8039 144.157 24.8039V25.0403C140.471 26.6998 136.785 25.2646 134.02 21.5784L129.412 15.5881L134.02 9.59793C134.359 9.16105 134.481 8.67636 133.679 8.67636H133.099V8.21558H138.167V8.67636H137.706C136.785 8.67636 135.921 9.02204 135.402 9.59793L132.177 13.745L136.785 20.196Z" fill="url(#paint9_linear)"/>
</g>
<defs>
<filter id="filter0_d" x="-1.68604" y="-1.15698" width="150.687" height="33.6471" filterUnits="userSpaceOnUse" color-interpolation-filters="sRGB">
<feFlood flood-opacity="0" result="BackgroundImageFix"/>
<feColorMatrix in="SourceAlpha" type="matrix" values="0 0 0 0 0 0 0 0 0 0 0 0 0 0 0 0 0 0 127 0"/>
<feOffset dy="1"/>
<feGaussianBlur stdDeviation="1.5"/>
<feColorMatrix type="matrix" values="0 0 0 0 0 0 0 0 0 0 0 0 0 0 0 0 0 0 0.3 0"/>
<feBlend mode="normal" in2="BackgroundImageFix" result="effect1_dropShadow"/>
<feBlend mode="normal" in="SourceGraphic" in2="effect1_dropShadow" result="shape"/>
</filter>
<linearGradient id="paint0_linear" x1="18.8237" y1="10.0587" x2="26.9572" y2="22.4198" gradientUnits="userSpaceOnUse">
<stop stop-color="#F1BC51"/>
<stop offset="1" stop-color="#917444"/>
</linearGradient>
<linearGradient id="paint1_linear" x1="77.951" y1="9.2771" x2="89.6192" y2="22.4417" gradientUnits="userSpaceOnUse">
<stop stop-color="#F1BC51"/>
<stop offset="1" stop-color="#917444"/>
</linearGradient>
<linearGradient id="paint2_linear" x1="33.5689" y1="9.13724" x2="44.1865" y2="20.5717" gradientUnits="userSpaceOnUse">
<stop stop-color="#F1BC51"/>
<stop offset="1" stop-color="#917444"/>
</linearGradient>
<linearGradient id="paint3_linear" x1="109.13" y1="8.88718" x2="121.604" y2="20.1729" gradientUnits="userSpaceOnUse">
<stop stop-color="#F1BC51"/>
<stop offset="1" stop-color="#917444"/>
</linearGradient>
<linearGradient id="paint4_linear" x1="47.2561" y1="8.85179" x2="59.114" y2="18.3717" gradientUnits="userSpaceOnUse">
<stop stop-color="#F1BC51"/>
<stop offset="1" stop-color="#917444"/>
</linearGradient>
<linearGradient id="paint5_linear" x1="96.0994" y1="8.85179" x2="107.957" y2="18.3717" gradientUnits="userSpaceOnUse">
<stop stop-color="#F1BC51"/>
<stop offset="1" stop-color="#917444"/>
</linearGradient>
<linearGradient id="paint6_linear" x1="61.3269" y1="8.88717" x2="73.8606" y2="21.7011" gradientUnits="userSpaceOnUse">
<stop stop-color="#F1BC51"/>
<stop offset="1" stop-color="#917444"/>
</linearGradient>
<linearGradient id="paint7_linear" x1="4.68662" y1="4.17241" x2="20.9741" y2="22.9657" gradientUnits="userSpaceOnUse">
<stop stop-color="#F1BC51"/>
<stop offset="1" stop-color="#917444"/>
</linearGradient>
<linearGradient id="paint8_linear" x1="125.265" y1="9.56013" x2="140.003" y2="26.549" gradientUnits="userSpaceOnUse">
<stop stop-color="#F1BC51"/>
<stop offset="1" stop-color="#917444"/>
</linearGradient>
<linearGradient id="paint9_linear" x1="125.265" y1="9.56013" x2="140.003" y2="26.549" gradientUnits="userSpaceOnUse">
<stop stop-color="#F1BC51"/>
<stop offset="1" stop-color="#917444"/>
</linearGradient>
</defs>
</svg>
