<svg width="20" height="13" viewBox="0 0 20 13" fill="none" xmlns="http://www.w3.org/2000/svg">
<path fill-rule="evenodd" clip-rule="evenodd" d="M10 6.45823L0.785882 0.0229763C0.854864 0.0079283 0.926506 0 1 0H19C19.0735 0 19.1451 0.00792832 19.2141 0.0229763L10 6.45823ZM0 11.4879V1.30373L5.36345 5.04962L0 11.4879ZM0.724611 12.9616C0.812096 12.9866 0.904484 13 1 13H19C19.0955 13 19.1879 12.9866 19.2754 12.9616L13.4023 5.91161L10.4294 7.98793L10 8.28785L9.57056 7.98793L6.59766 5.91161L0.724611 12.9616ZM14.6366 5.04962L20 11.4879V1.30373L14.6366 5.04962Z" fill="#F5F3FF"/>
</svg>
