<svg width="59" height="17" viewBox="0 0 59 17" fill="none" xmlns="http://www.w3.org/2000/svg">
<g filter="url(#filter0_d)">
<path fill-rule="evenodd" clip-rule="evenodd" d="M56 1H44.7879L40.9212 5H32.5C32.2966 5 32.1137 5.1231 32.037 5.31116L32.0371 5.31098L32.0323 5.32166C32.0254 5.33688 32.0174 5.35394 32.0025 5.38293C31.9691 5.44795 31.9229 5.53169 31.8458 5.65025C31.6836 5.90152 31.4347 6.2349 31.0214 6.64645C30.1984 7.46949 28.757 8.55868 26.3143 9.53576C24.3749 10.3151 21.9468 10.6762 19.9606 10.8502C18.9709 10.9371 18.1103 10.9743 17.4888 10.9901C17.1798 10.9981 16.935 11.0005 16.7646 11.001C16.6802 11.0012 16.6161 11.001 16.5719 11.0007L16.5231 11.0003L16.5112 11.0001L16.5078 11.0001C16.3808 10.9981 16.2577 11.0445 16.1636 11.13L10.8067 16H3V17H17.7747C26.0431 17 33.9572 13.643 39.7039 7.69817L45.2121 2H56V1ZM12.2933 16H17.7747C25.772 16 33.4266 12.7531 38.9849 7.00315L39.9546 6H32.8039C32.7702 6.058 32.7305 6.1235 32.6854 6.1935C32.5039 6.47348 32.1902 6.8901 31.7285 7.35355C30.8016 8.28051 29.243 9.44132 26.6857 10.4642C24.6365 11.2803 22.0647 11.6692 20.048 11.8464C19.0362 11.935 18.1447 11.9737 17.5144 11.9898C17.1975 11.9979 16.9415 12.0005 16.7675 12.001L16.6921 12.0011L12.2933 16ZM32.036 5.31368L32.0366 5.31213L32.037 5.31116C32.0367 5.312 32.0363 5.31284 32.036 5.31368ZM32.036 5.31368C32.0359 5.31399 32.0357 5.3143 32.5 5.5L32.036 5.31368Z" fill="#C59A43"/>
</g>
<defs>
<filter id="filter0_d" x="0" y="0" width="59" height="22" filterUnits="userSpaceOnUse" color-interpolation-filters="sRGB">
<feFlood flood-opacity="0" result="BackgroundImageFix"/>
<feColorMatrix in="SourceAlpha" type="matrix" values="0 0 0 0 0 0 0 0 0 0 0 0 0 0 0 0 0 0 127 0"/>
<feOffset dy="2"/>
<feGaussianBlur stdDeviation="1.5"/>
<feColorMatrix type="matrix" values="0 0 0 0 0 0 0 0 0 0 0 0 0 0 0 0 0 0 0.6 0"/>
<feBlend mode="normal" in2="BackgroundImageFix" result="effect1_dropShadow"/>
<feBlend mode="normal" in="SourceGraphic" in2="effect1_dropShadow" result="shape"/>
</filter>
</defs>
</svg>
