<svg width="59" height="17" viewBox="0 0 59 17" fill="none" xmlns="http://www.w3.org/2000/svg">
<g filter="url(#filter0_d)">
<path fill-rule="evenodd" clip-rule="evenodd" d="M3 1H14.2121L18.0788 5H26.5C26.7034 5 26.8863 5.1231 26.963 5.31116L26.9629 5.31098L26.9677 5.32166C26.9746 5.33688 26.9826 5.35394 26.9975 5.38293C27.0309 5.44795 27.0771 5.53169 27.1542 5.65025C27.3164 5.90152 27.5653 6.2349 27.9786 6.64645C28.8016 7.46949 30.243 8.55868 32.6857 9.53576C34.6251 10.3151 37.0532 10.6762 39.0394 10.8502C40.0291 10.9371 40.8897 10.9743 41.5112 10.9901C41.8202 10.9981 42.065 11.0005 42.2354 11.001C42.3198 11.0012 42.3839 11.001 42.4281 11.0007L42.4769 11.0003L42.4888 11.0001L42.4922 11.0001C42.6192 10.9981 42.7423 11.0445 42.8364 11.13L48.1933 16H56V17H41.2253C32.9569 17 25.0428 13.643 19.2961 7.69817L13.7879 2H3V1ZM46.7067 16H41.2253C33.228 16 25.5734 12.7531 20.0151 7.00315L19.0454 6H26.1961C26.2298 6.058 26.2695 6.1235 26.3146 6.1935C26.4961 6.47348 26.8098 6.8901 27.2715 7.35355C28.1984 8.28051 29.757 9.44132 32.3143 10.4642C34.3635 11.2803 36.9353 11.6692 38.952 11.8464C39.9638 11.935 40.8553 11.9737 41.4856 11.9898C41.8025 11.9979 42.0585 12.0005 42.2325 12.001L42.3079 12.0011L46.7067 16ZM26.964 5.31368L26.9634 5.31213L26.963 5.31116C26.9633 5.312 26.9637 5.31284 26.964 5.31368ZM26.964 5.31368C26.9641 5.31399 26.9643 5.3143 26.5 5.5L26.964 5.31368Z" fill="#C59A43"/>
</g>
<defs>
<filter id="filter0_d" x="0" y="0" width="59" height="22" filterUnits="userSpaceOnUse" color-interpolation-filters="sRGB">
<feFlood flood-opacity="0" result="BackgroundImageFix"/>
<feColorMatrix in="SourceAlpha" type="matrix" values="0 0 0 0 0 0 0 0 0 0 0 0 0 0 0 0 0 0 127 0"/>
<feOffset dy="2"/>
<feGaussianBlur stdDeviation="1.5"/>
<feColorMatrix type="matrix" values="0 0 0 0 0 0 0 0 0 0 0 0 0 0 0 0 0 0 0.6 0"/>
<feBlend mode="normal" in2="BackgroundImageFix" result="effect1_dropShadow"/>
<feBlend mode="normal" in="SourceGraphic" in2="effect1_dropShadow" result="shape"/>
</filter>
</defs>
</svg>
